<svg width="28" height="28" viewBox="0 0 28 28" fill="none" xmlns="http://www.w3.org/2000/svg">
<path d="M22.167 21H5.83366C5.18933 21 4.66699 21.5223 4.66699 22.1667C4.66699 22.811 5.18933 23.3333 5.83366 23.3333H22.167C22.8113 23.3333 23.3337 22.811 23.3337 22.1667C23.3337 21.5223 22.8113 21 22.167 21Z" fill="#313D4F"/>
<path d="M4.66699 19.8335V22.1668C4.66699 22.8112 5.18933 23.3335 5.83366 23.3335C6.47799 23.3335 7.00033 22.8112 7.00033 22.1668V19.8335C7.00033 19.1892 6.47799 18.6668 5.83366 18.6668C5.18933 18.6668 4.66699 19.1892 4.66699 19.8335Z" fill="#313D4F"/>
<path d="M21 19.8335V22.1668C21 22.8112 21.5223 23.3335 22.1667 23.3335C22.811 23.3335 23.3333 22.8112 23.3333 22.1668V19.8335C23.3333 19.1892 22.811 18.6668 22.1667 18.6668C21.5223 18.6668 21 19.1892 21 19.8335Z" fill="#313D4F"/>
<path d="M14 17.4998C13.7582 17.5017 13.5217 17.4283 13.3234 17.2898L8.65669 13.9998C8.40517 13.8214 8.23452 13.5507 8.18205 13.2468C8.12959 12.9429 8.19956 12.6306 8.37669 12.3782C8.46511 12.252 8.57764 12.1446 8.7078 12.0621C8.83795 11.9797 8.98315 11.9238 9.13501 11.8978C9.28686 11.8718 9.44237 11.8761 9.59256 11.9105C9.74274 11.9449 9.88463 12.0087 10.01 12.0982L14 14.8865L17.9667 11.8998C18.2142 11.7142 18.5254 11.6345 18.8317 11.6782C19.138 11.722 19.4144 11.8856 19.6 12.1332C19.7857 12.3807 19.8654 12.6919 19.8216 12.9982C19.7779 13.3045 19.6142 13.5809 19.3667 13.7665L14.7 17.2665C14.4981 17.418 14.2525 17.4998 14 17.4998Z" fill="#313D4F"/>
<path d="M14.0007 15.1667C13.6912 15.1667 13.3945 15.0438 13.1757 14.825C12.9569 14.6062 12.834 14.3094 12.834 14V4.66667C12.834 4.35725 12.9569 4.0605 13.1757 3.84171C13.3945 3.62292 13.6912 3.5 14.0007 3.5C14.3101 3.5 14.6068 3.62292 14.8256 3.84171C15.0444 4.0605 15.1673 4.35725 15.1673 4.66667V14C15.1673 14.3094 15.0444 14.6062 14.8256 14.825C14.6068 15.0438 14.3101 15.1667 14.0007 15.1667Z" fill="#313D4F"/>
</svg>
