<svg width="16" height="18" viewBox="0 0 16 18" fill="none" xmlns="http://www.w3.org/2000/svg">
<g clip-path="url(#clip0_62_17099)">
<path d="M2.33333 18H12.3333C12.9531 17.998 13.5469 17.7195 13.9844 17.2255C14.4218 16.7316 14.6672 16.0625 14.6667 15.3652V9.7125C14.6667 9.51359 14.5964 9.32282 14.4714 9.18217C14.3464 9.04152 14.1768 8.9625 14 8.9625C13.8232 8.9625 13.6536 9.04152 13.5286 9.18217C13.4036 9.32282 13.3333 9.51359 13.3333 9.7125V15.3652C13.3342 15.6648 13.2294 15.9526 13.0419 16.1653C12.8545 16.378 12.5996 16.4984 12.3333 16.5H2.33333C2.06705 16.4984 1.8122 16.378 1.62472 16.1653C1.43724 15.9526 1.33245 15.6648 1.33333 15.3652V4.13475C1.33245 3.83518 1.43724 3.54745 1.62472 3.3347C1.8122 3.12196 2.06705 3.00159 2.33333 3H7.33333C7.51015 3 7.67971 2.92098 7.80474 2.78033C7.92976 2.63968 8 2.44891 8 2.25C8 2.05109 7.92976 1.86032 7.80474 1.71967C7.67971 1.57902 7.51015 1.5 7.33333 1.5H2.33333C1.71354 1.50199 1.11976 1.78052 0.682306 2.27448C0.244854 2.76845 -0.000531394 3.43748 8.64072e-07 4.13475V15.3652C-0.000531394 16.0625 0.244854 16.7316 0.682306 17.2255C1.11976 17.7195 1.71354 17.998 2.33333 18Z" fill="white"/>
<path d="M6.303 7.90771L5.777 10.6182C5.75319 10.7411 5.75726 10.8689 5.78883 10.9896C5.8204 11.1103 5.87846 11.2201 5.95767 11.309C6.03796 11.3956 6.13562 11.4591 6.24239 11.4942C6.34916 11.5294 6.46188 11.535 6.571 11.5107L8.975 10.9175C9.09982 10.8866 9.21414 10.8161 9.30433 10.7142L15.3803 3.87871C15.5661 3.66977 15.7134 3.42171 15.814 3.14871C15.9145 2.8757 15.9662 2.58309 15.9662 2.28758C15.9662 1.99207 15.9145 1.69946 15.814 1.42645C15.7134 1.15345 15.5661 0.905392 15.3803 0.696455C14.9995 0.287058 14.4931 0.0585938 13.9663 0.0585938C13.4396 0.0585937 12.9331 0.287058 12.5523 0.696455L6.48566 7.53871C6.39461 7.63948 6.33121 7.76756 6.303 7.90771ZM13.495 1.75771C13.6218 1.62101 13.7907 1.5447 13.9663 1.5447C14.142 1.5447 14.3108 1.62101 14.4377 1.75771C14.561 1.89918 14.6301 2.08943 14.6301 2.28758C14.6301 2.48573 14.561 2.67598 14.4377 2.81746L13.9663 3.34771L13.0237 2.28721L13.495 1.75771ZM7.56167 8.44321L12.0777 3.34996L13.011 4.40521L8.493 9.49996L7.29633 9.79545L7.56167 8.44321Z" fill="white"/>
</g>
<defs>
<clipPath id="clip0_62_17099">
<rect width="16" height="18" fill="white"/>
</clipPath>
</defs>
</svg>
